<svg width="210" height="52" viewBox="0 0 210 52" fill="none" xmlns="http://www.w3.org/2000/svg">
<path d="M21.4992 27.7138C21.5618 33.0663 21.8749 39.2096 22.814 44.1363C22.814 44.1363 22.814 44.1972 22.814 44.258C23.5653 45.3528 24.3792 49.7322 25.0053 51.1311C25.0053 51.1919 25.0679 51.1919 25.1305 51.2528C25.5688 51.5569 27.0714 52.1043 28.0731 51.9827C28.1357 51.9827 28.1983 51.9218 28.1983 51.861C28.4487 50.7053 28.2609 49.6713 28.1357 47.6033C27.7601 42.4941 27.3844 34.3436 27.447 29.4169C31.5792 31.6674 46.9808 42.3724 54.9947 44.6229C55.1825 44.6838 55.3703 44.6229 55.4956 44.5013C55.9338 44.0755 56.1842 44.0147 56.6851 43.7714C56.9355 43.6497 57.186 43.1023 57.1234 42.4333C62.1946 42.2508 69.2694 40.3652 72.9633 35.8034C75.5302 32.7014 75.4676 28.3829 73.9024 26.9231C73.7772 26.8014 73.4641 26.7406 73.2137 26.4973C70.772 24.1252 67.4538 23.5169 63.9477 23.6994C60.379 23.8819 57.499 25.3417 55.2451 26.7406C55.0573 23.3953 56.4347 19.1984 55.2451 16.4613C55.1825 16.3397 55.1199 16.3397 54.9947 16.3397C53.9303 16.3397 51.8017 17.0696 51.3634 17.4953C51.2382 17.5562 51.2382 17.6778 51.1756 17.8603C51.1756 18.651 50.9251 22.6654 50.4869 23.0912C50.4243 23.152 50.4243 23.2128 50.4243 23.3953C49.9234 28.2612 49.986 32.3973 50.3617 35.9251C50.3617 36.0467 50.8625 36.5333 51.426 36.7158C51.8017 36.8374 53.4295 36.5333 54.8069 36.0467C54.9947 35.9859 55.2451 35.9859 55.3077 35.9859C55.4329 35.9859 55.4956 35.8034 55.4956 35.6818C55.4956 35.4385 55.4956 34.7694 55.5582 34.5261C56.3095 31.4241 59.5651 27.4097 63.6972 26.8014C66.3268 26.3757 68.0172 27.288 69.2068 28.5653C69.5198 28.8695 69.8955 31.3633 68.3929 34.1003C67.3285 36.0467 65.1372 37.7498 62.2573 38.8446C59.1894 40.0003 56.1216 40.2436 52.9286 40.1219C49.7982 38.2972 44.6017 34.1003 40.0313 32.3973C39.28 32.154 38.0278 30.9983 37.4017 30.5725C35.2104 28.8086 30.4522 25.8283 27.5722 24.0035V23.9427C27.5096 23.5778 27.5722 23.5169 27.6348 23.3345C27.6974 23.2128 27.7601 23.152 27.8227 23.0912C28.8244 22.4221 33.0192 20.2324 33.3322 19.685C33.4574 19.5634 33.7078 19.4417 33.8331 19.3809C40.0939 15.6706 51.113 10.683 55.9338 5.8171C56.2468 5.63463 56.3095 5.51298 56.3095 5.39133C56.3095 5.20886 56.3721 4.96556 56.3721 4.78309C56.5599 4.11402 56.6225 3.5666 56.4347 2.95836C56.4347 2.83671 56.3095 2.77589 56.2468 2.77589C53.6799 2.53259 50.2365 4.0532 47.106 6.97276C46.1669 7.8243 45.4156 8.12842 44.5391 8.61501C40.9078 10.6222 32.3931 15.7314 28.3235 18.2861C28.2609 18.3469 28.1983 18.2861 28.1983 18.2252C28.4487 13.6026 29.3879 6.97276 30.3896 1.86353C30.3896 1.68105 30.3896 1.55941 30.327 1.49858C30.014 1.01199 29.8261 0.464571 29.7009 0.282098C29.7009 0.282098 29.7009 0.282098 29.6383 0.221274C28.9496 -0.143671 28.3861 0.0388016 27.8853 0.0996257C27.3844 0.221274 26.7583 0.586219 25.9444 0.768692C25.8192 0.768692 25.7566 0.829516 25.7566 0.951164C23.7531 5.63463 22.0001 13.6634 21.687 19.9283C21.687 19.9283 21.687 19.9891 21.6244 19.9891C17.6175 17.4953 13.9236 15.6706 11.7323 14.6366C11.6697 14.6366 11.6071 14.6366 11.6071 14.5758C10.8558 14.515 9.97929 13.9675 9.16538 13.4809C8.28886 12.9335 6.53583 11.7779 5.40888 11.1088C5.28366 11.048 5.15845 10.9872 5.03323 11.048C4.15671 11.1696 2.34107 12.3861 1.8402 13.1768C1.65238 13.4201 2.02803 13.9675 1.96542 14.2717C1.96542 14.3325 1.96542 14.3325 2.02803 14.3933C3.02976 15.4273 5.72192 17.1912 8.6019 18.7118C11.9201 20.4757 15.301 22.118 16.6784 22.9695C16.741 23.0303 16.741 23.0303 16.741 23.0303C16.9288 23.2128 17.054 23.3345 17.4923 23.5778C18.181 23.9427 18.3062 24.0035 18.494 24.186C18.5566 24.2468 18.5566 24.3685 18.4314 24.4293C14.9253 26.8014 7.97582 31.1808 4.65758 33.3705C4.15671 33.6746 2.27846 34.4653 1.90281 34.6478C1.02629 35.0127 0.274995 35.5601 0.0245616 36.1684C-0.0380468 36.29 0.0245615 36.3508 0.149778 36.3508C0.713253 36.4725 0.83847 36.8374 1.21412 37.0199C1.33934 37.0807 1.46455 37.0807 1.65238 37.0807C2.34107 37.0807 3.59324 36.655 5.72192 35.7426C8.22625 34.6478 15.9271 30.0251 16.8662 29.5385C16.8662 29.5385 16.8662 29.5385 16.9288 29.5385C17.3671 29.5385 17.8053 29.2344 18.181 28.9303C18.6192 28.5653 19.7462 27.9571 20.3723 27.653L21.6244 26.9839L21.4992 27.7138Z" fill="#0051CD"/>
<path d="M90.177 32.924C91.353 30.2733 92.389 28.1827 93.285 26.652C94.7783 24.132 96.393 21.8173 98.129 19.708C96.6916 19.5027 95.525 19.4 94.629 19.4L95.833 16.068C98.073 16.1613 100.229 16.3853 102.301 16.74C104.373 17.076 106.398 17.6733 108.377 18.532L110.029 22.284C109.133 26.0733 107.145 29.2093 104.065 31.692C101.228 33.9693 97.793 35.4813 93.761 36.228L90.177 32.924ZM95.105 32.056C97.6436 31.328 99.893 30.0773 101.853 28.304C103.925 26.4373 105.288 24.2627 105.941 21.78C103.944 20.94 101.61 20.296 98.941 19.848L101.405 21.864C98.7916 25.168 96.6916 28.5653 95.105 32.056ZM119.644 33.904C118.281 34.6133 116.442 35.3787 114.128 36.2L110.6 32.812C112.914 26.708 116.022 21.1173 119.924 16.04L122.948 19.036C120.932 21.4813 118.962 24.58 117.04 28.332C116.48 29.452 115.976 30.5347 115.528 31.58C117.768 31.076 119.653 30.516 121.184 29.9V29.956C124.152 23.8333 126.662 19.5213 128.716 17.02L131.796 20.016C128.884 23.5253 125.888 29.1533 122.808 36.9L119.644 33.904ZM146.355 31.58C148.297 31.9907 150.779 32.3453 153.803 32.644L152.599 36.536C150.042 36.312 148.203 36.0973 147.083 35.892C145.982 35.6867 145.114 35.5187 144.479 35.388L141.119 32.336C143.397 27.5947 146.747 22.2187 151.171 16.208L154.055 19.12C151.61 22.48 149.043 26.6333 146.355 31.58ZM156.205 33.344C158.949 27.1653 162.29 21.4533 166.229 16.208L169.085 19.12C167.181 21.752 165.622 24.16 164.409 26.344C162.262 30.2267 160.601 33.5493 159.425 36.312L156.205 33.344ZM172.455 32.028C175.404 31.8227 178.092 31.1227 180.519 29.928L181.611 33.12C178.549 35.0053 175.012 36.0973 170.999 36.396L167.443 33.092C168.283 29.4333 169.776 26.12 171.923 23.152C174.368 19.8107 177.336 17.4027 180.827 15.928L186.147 19.764C185.661 21.3507 184.784 23.1893 183.515 25.28C183.16 25.8587 182.824 26.372 182.507 26.82L179.259 25.028C180.528 22.844 181.377 21.0053 181.807 19.512C179.473 20.6693 177.411 22.4427 175.619 24.832C173.901 27.1653 172.847 29.564 172.455 32.028ZM196.322 30.46C194.941 29.564 193.681 28.808 192.542 28.192C190.955 31.216 189.658 33.9227 188.65 36.312L185.374 33.316C186.307 31.244 187.511 28.9293 188.986 26.372L186.774 25.308L188.678 22.032L190.918 23.096C192.635 20.296 194.175 18.028 195.538 16.292L198.562 19.008C197.797 20.016 196.453 21.9853 194.53 24.916C195.725 25.588 196.938 26.3067 198.17 27.072C200.895 22.3867 203.117 18.9613 204.834 16.796L207.858 19.512C205.655 22.48 203.537 25.756 201.502 29.34L203.882 31.104L201.698 34.296L199.71 32.784C198.907 34.3707 198.263 35.8173 197.778 37.124L194.53 34.128C194.978 33.12 195.575 31.8973 196.322 30.46Z" fill="#2C333A"/>
</svg>
