<svg width="32" height="36" viewBox="0 0 32 36" fill="none" xmlns="http://www.w3.org/2000/svg">
<path d="M2 33.7581C2.77024 30.6691 4.53461 27.9189 7.02141 25.9312C9.50821 23.9434 12.5795 22.8283 15.7623 22.7575C18.9452 22.6867 22.063 23.6642 24.6357 25.5395C27.2084 27.4148 29.0932 30.0838 30 33.1355" stroke="#2C333A" stroke-width="4" stroke-linecap="round" stroke-linejoin="round"/>
<path d="M16.6977 16.6738H15.2931C13.5332 16.6738 11.8454 15.9747 10.601 14.7303C9.35662 13.4859 8.65752 11.7981 8.65752 10.0383V9.4309C8.65752 7.52404 9.41502 5.69525 10.7634 4.3469C12.1117 2.99855 13.9405 2.24107 15.8473 2.24107C16.8317 2.24007 17.8065 2.43323 18.7161 2.80946C19.6257 3.18569 20.4522 3.73761 21.1483 4.43365C21.8443 5.12968 22.3962 5.95615 22.7724 6.86575C23.1487 7.77535 23.3418 8.75022 23.3408 9.73456V10.0383C23.3408 11.7981 22.6417 13.4859 21.3973 14.7303C20.1529 15.9747 18.4651 16.6738 16.7052 16.6738H16.6977Z" stroke="#2C333A" stroke-width="4" stroke-linecap="round" stroke-linejoin="round"/>
</svg>
