<svg width="40" height="31" viewBox="0 0 40 31" fill="none" xmlns="http://www.w3.org/2000/svg">
<g clip-path="url(#clip0_16899_24016)">
<path fill-rule="evenodd" clip-rule="evenodd" d="M0 0.5H57V2.8125H0V0.5ZM0 5.11875H57V7.43125H0V5.11875ZM0 9.73125H57V12.0437H0V9.73125ZM0 14.3438H57V16.6562H0V14.3438ZM0 18.9688H57V21.2687H0V18.9688ZM0 23.575H57V25.8875H0V23.575ZM0 28.1875H57V30.5H0V28.1875Z" fill="#C41829"/>
<path fill-rule="evenodd" clip-rule="evenodd" d="M0 2.8125H57V5.11875H0V2.8125ZM0 7.425H57V9.73125H0V7.425ZM0 12.0375H57V14.35H0V12.0375ZM0 16.6563H57V18.9688H0V16.6563ZM0 21.2688H57V23.5813H0V21.2688ZM0 25.8813H57V28.1938H0V25.8813Z" fill="white"/>
<path fill-rule="evenodd" clip-rule="evenodd" d="M0 0.5H22.8V16.6562H0V0.5Z" fill="#01378C"/>
<path fill-rule="evenodd" clip-rule="evenodd" d="M1.90005 1.1875L2.11255 1.83125H2.77505L2.23755 2.225L2.4438 2.86875L1.90005 2.46875L1.36255 2.8625L1.56255 2.225L1.0188 1.83125H1.70005L1.90005 1.1875ZM5.70005 1.1875L5.9063 1.83125H6.5813L6.03755 2.225L6.23755 2.86875L5.70005 2.46875L5.1563 2.8625L5.36255 2.225L4.82505 1.83125H5.48755L5.70005 1.1875ZM9.50005 1.1875L9.7063 1.83125H10.375L9.83755 2.225L10.0438 2.86875L9.50005 2.46875L8.9563 2.8625L9.16255 2.225L8.6188 1.83125H9.2938L9.50005 1.1875ZM13.3 1.1875L13.5063 1.83125H14.1813L13.6375 2.225L13.8438 2.86875L13.3 2.46875L12.7563 2.8625L12.9688 2.225L12.4188 1.83125H13.0875L13.3 1.1875ZM17.1 1.1875L17.3063 1.83125H17.975L17.4375 2.225L17.6438 2.86875L17.1 2.46875L16.5563 2.8625L16.7625 2.225L16.225 1.83125H16.8938L17.1 1.1875ZM20.9 1.1875L21.1063 1.83125H21.7813L21.2313 2.225L21.4438 2.86875L20.9 2.46875L20.3563 2.8625L20.5688 2.225L20.0188 1.83125H20.6938L20.9 1.1875ZM3.80005 2.8125L4.0063 3.45H4.68755L4.1438 3.8375L4.3438 4.48125L3.81255 4.0875L3.2688 4.48125L3.46255 3.8375L2.93755 3.45H3.6063L3.80005 2.8125ZM7.60005 2.8125L7.81255 3.45H8.4813L7.9313 3.8375L8.1438 4.48125L7.60005 4.0875L7.0563 4.48125L7.26255 3.8375L6.7188 3.45H7.3938L7.60005 2.8125ZM11.4 2.8125L11.6063 3.45H12.2813L11.7375 3.8375L11.9438 4.48125L11.4 4.0875L10.8563 4.48125L11.0625 3.8375L10.525 3.45H11.1875L11.4 2.8125ZM15.2 2.8125L15.4125 3.45H16.0813L15.5313 3.8375L15.7438 4.48125L15.2 4.0875L14.6625 4.48125L14.8625 3.8375L14.3188 3.45H15L15.2 2.8125ZM19 2.8125L19.2063 3.45H19.8813L19.3375 3.8375L19.5438 4.48125L19 4.0875L18.4563 4.48125L18.6625 3.8375L18.125 3.45H18.7938L19 2.8125ZM1.90005 4.4125L2.11255 5.0625H2.77505L2.23755 5.45625L2.4438 6.09375L1.90005 5.7L1.36255 6.09375L1.56255 5.45625L1.0188 5.0625H1.70005L1.90005 4.4125ZM5.70005 4.4125L5.9063 5.0625H6.5813L6.03755 5.45625L6.23755 6.09375L5.70005 5.7L5.1563 6.09375L5.36255 5.45L4.82505 5.05625H5.48755L5.70005 4.4125ZM9.50005 4.4125L9.7063 5.05625H10.375L9.83755 5.45L10.0438 6.0875L9.50005 5.69375L8.9563 6.0875L9.16255 5.44375L8.6188 5.05H9.2938L9.50005 4.4125ZM13.3 4.4125L13.5063 5.05625H14.1813L13.6375 5.45L13.8438 6.0875L13.3 5.69375L12.7563 6.0875L12.9688 5.44375L12.4188 5.05H13.0875L13.3 4.4125ZM17.1 4.4125L17.3063 5.05625H17.975L17.4375 5.45L17.6438 6.0875L17.1 5.69375L16.5563 6.0875L16.7625 5.44375L16.225 5.05H16.8938L17.1 4.4125ZM20.9 4.4125L21.1063 5.05625H21.7813L21.2313 5.45L21.4438 6.0875L20.9 5.69375L20.3563 6.0875L20.5688 5.44375L20.0188 5.05H20.6938L20.9 4.4125ZM3.80005 6.0375L4.0063 6.675H4.68755L4.1438 7.06875L4.35005 7.7125L3.8063 7.3125L3.26255 7.70625L3.4688 7.06875L2.9313 6.675H3.60005L3.80005 6.0375ZM7.60005 6.0375L7.81255 6.675H8.4813L7.9313 7.06875L8.1438 7.7125L7.60005 7.3125L7.0563 7.70625L7.26255 7.06875L6.7188 6.675H7.3938L7.60005 6.0375ZM11.4 6.0375L11.6063 6.675H12.2813L11.7375 7.06875L11.9438 7.7125L11.4 7.3125L10.8563 7.70625L11.0625 7.06875L10.525 6.675H11.1875L11.4 6.0375ZM15.2 6.0375L15.4125 6.675H16.0813L15.5375 7.06875L15.7438 7.7125L15.2 7.3125L14.6625 7.70625L14.8625 7.06875L14.3188 6.675H15L15.2 6.0375ZM19 6.0375L19.2063 6.675H19.8813L19.3375 7.06875L19.5438 7.7125L19 7.3125L18.4563 7.70625L18.6625 7.06875L18.125 6.675H18.7938L19 6.0375ZM1.90005 7.65625L2.11255 8.29375H2.77505L2.23755 8.6875L2.4438 9.33125L1.90005 8.93125L1.36255 9.325L1.56255 8.6875L1.0188 8.29375H1.70005L1.90005 7.65625ZM5.70005 7.65625L5.9063 8.29375H6.5813L6.03755 8.6875L6.23755 9.325L5.70005 8.93125L5.1563 9.325L5.36255 8.6875L4.82505 8.29375H5.48755L5.70005 7.65625ZM9.50005 7.65625L9.7063 8.29375H10.375L9.83755 8.6875L10.0438 9.33125L9.50005 8.93125L8.9563 9.325L9.16255 8.6875L8.6188 8.29375H9.2938L9.50005 7.65625ZM13.3 7.65625L13.5063 8.29375H14.1813L13.6375 8.6875L13.8438 9.33125L13.3 8.93125L12.7563 9.325L12.9688 8.6875L12.4188 8.29375H13.0875L13.3 7.65625ZM17.1 7.65625L17.3063 8.29375H17.975L17.4375 8.6875L17.6438 9.33125L17.1 8.93125L16.5563 9.325L16.7625 8.6875L16.225 8.29375H16.8938L17.1 7.65625ZM20.9 7.65625L21.1063 8.29375H21.7813L21.2313 8.6875L21.4438 9.33125L20.9 8.93125L20.3563 9.325L20.5625 8.6875L20.0126 8.29375H20.6875L20.9 7.65625ZM3.80005 9.26875L4.0063 9.9125H4.68755L4.1438 10.3L4.35005 10.9438L3.8063 10.5438L3.26255 10.9438L3.4688 10.3L2.9313 9.90625H3.60005L3.80005 9.26875ZM7.60005 9.26875L7.81255 9.9125H8.4813L7.9313 10.3L8.1438 10.9438L7.60005 10.5438L7.0563 10.9438L7.26255 10.3L6.7188 9.90625H7.3938L7.60005 9.26875ZM11.4 9.26875L11.6063 9.9125H12.2813L11.7375 10.3L11.9438 10.9438L11.4 10.5438L10.8563 10.9438L11.0625 10.3L10.525 9.90625H11.1875L11.4 9.26875ZM15.2 9.26875L15.4125 9.9125H16.0813L15.5375 10.3L15.7438 10.9438L15.2 10.5438L14.6625 10.9438L14.8625 10.3L14.3188 9.90625H15L15.2 9.26875ZM19 9.26875L19.2063 9.9125H19.8813L19.3375 10.3L19.5438 10.9438L19 10.5438L18.4563 10.9438L18.6625 10.3L18.125 9.90625H18.7938L19 9.26875ZM1.90005 10.8813L2.11255 11.525H2.77505L2.23755 11.9188L2.4438 12.55L1.90005 12.1625L1.36255 12.55L1.56255 11.9125L1.0188 11.5188H1.70005L1.90005 10.8813ZM5.70005 10.8813L5.9063 11.525H6.5813L6.03755 11.9188L6.2438 12.55L5.70005 12.1625L5.1563 12.55L5.3688 11.9125L4.82505 11.5188H5.48755L5.70005 10.8813ZM9.50005 10.8813L9.7063 11.525H10.375L9.83755 11.9188L10.0438 12.55L9.50005 12.1625L8.9563 12.55L9.16255 11.9125L8.6188 11.5188H9.2938L9.50005 10.8813ZM13.3 10.8813L13.5063 11.525H14.1813L13.6375 11.9188L13.8438 12.55L13.3 12.1625L12.7563 12.55L12.9688 11.9125L12.4188 11.5188H13.0875L13.3 10.8813ZM17.1 10.8813L17.3063 11.525H17.975L17.4375 11.9188L17.6438 12.55L17.1 12.1625L16.5563 12.55L16.7625 11.9125L16.225 11.5188H16.8938L17.1 10.8813ZM20.9 10.8813L21.1063 11.525H21.7813L21.2313 11.9188L21.4438 12.55L20.9 12.1625L20.3563 12.55L20.5688 11.9125L20.0188 11.5188H20.6938L20.9 10.8813ZM3.80005 12.5L4.0063 13.1375H4.68755L4.1438 13.5313L4.35005 14.175L3.8063 13.775L3.26255 14.1688L3.4688 13.5313L2.9313 13.1375H3.60005L3.80005 12.5ZM7.60005 12.5L7.81255 13.1375H8.4813L7.9313 13.5313L8.1438 14.175L7.60005 13.775L7.0563 14.1688L7.26255 13.5313L6.7188 13.1375H7.3938L7.60005 12.5ZM11.4 12.5L11.6063 13.1375H12.2813L11.7375 13.5313L11.9438 14.175L11.4 13.775L10.8563 14.1688L11.0625 13.5313L10.525 13.1375H11.1875L11.4 12.5ZM15.2 12.5L15.4125 13.1375H16.0813L15.5375 13.5313L15.7438 14.175L15.2 13.775L14.6625 14.1688L14.8625 13.5313L14.3188 13.1375H15L15.2 12.5ZM19 12.5L19.2063 13.1375H19.8813L19.3375 13.5313L19.5438 14.175L19 13.775L18.4563 14.1688L18.6625 13.5313L18.125 13.1375H18.7938L19 12.5ZM1.90005 14.1188L2.11255 14.7563H2.77505L2.23755 15.15L2.4438 15.7875L1.90005 15.3938L1.36255 15.7875L1.56255 15.1438L1.0188 14.75H1.70005L1.90005 14.1188ZM5.70005 14.1188L5.9063 14.7563H6.5813L6.03755 15.15L6.2438 15.7875L5.70005 15.3938L5.1563 15.7875L5.3688 15.1438L4.82505 14.75H5.48755L5.70005 14.1188ZM9.50005 14.1188L9.7063 14.7563H10.375L9.85005 15.15L10.0563 15.7875L9.51255 15.3938L8.9688 15.7875L9.17505 15.1438L8.6313 14.75H9.3063L9.50005 14.1188ZM13.3 14.1188L13.5063 14.7563H14.1813L13.6375 15.15L13.8438 15.7875L13.3 15.3938L12.7563 15.7875L12.9688 15.1438L12.4188 14.75H13.0875L13.3 14.1188ZM17.1 14.1188L17.3063 14.7563H17.975L17.4375 15.15L17.6438 15.7875L17.1 15.3938L16.5563 15.7875L16.7625 15.1438L16.225 14.75H16.8938L17.1 14.1188ZM20.9 14.1188L21.1063 14.7563H21.7813L21.2313 15.15L21.4438 15.7875L20.9 15.3938L20.3563 15.7875L20.5688 15.1438L20.0188 14.75H20.6938L20.9 14.1188Z" fill="white"/>
</g>
<defs>
<clipPath id="clip0_16899_24016">
<rect width="40" height="30" fill="white" transform="translate(0 0.5)"/>
</clipPath>
</defs>
</svg>
