<svg width="170" height="42" viewBox="0 0 170 42" fill="none" xmlns="http://www.w3.org/2000/svg">
<path d="M17.1994 22.171C17.2495 26.4531 17.4999 31.3677 18.2512 35.3091C18.2512 35.3091 18.2512 35.3577 18.2512 35.4064C18.8522 36.2822 19.5034 39.7857 20.0042 40.9049C20.0042 40.9535 20.0543 40.9535 20.1044 41.0022C20.455 41.2455 21.6571 41.6834 22.4585 41.5861C22.5086 41.5861 22.5587 41.5375 22.5587 41.4888C22.759 40.5643 22.6087 39.7371 22.5086 38.0826C22.208 33.9953 21.9075 27.4749 21.9576 23.5335C25.2633 25.3339 37.5847 33.8979 43.9957 35.6983C44.146 35.747 44.2963 35.6983 44.3964 35.601C44.747 35.2604 44.9474 35.2117 45.3481 35.0171C45.5484 34.9198 45.7488 34.4818 45.6987 33.9466C49.7557 33.8006 55.4155 32.2922 58.3706 28.6427C60.4242 26.1611 60.3741 22.7063 59.1219 21.5385C59.0217 21.4412 58.7713 21.3925 58.571 21.1979C56.6176 19.3001 53.963 18.8135 51.1581 18.9595C48.3032 19.1055 45.9992 20.2733 44.1961 21.3925C44.0458 18.7162 45.1477 15.3587 44.1961 13.1691C44.146 13.0717 44.0959 13.0717 43.9957 13.0717C43.1443 13.0717 41.4413 13.6557 41.0907 13.9963C40.9905 14.0449 40.9905 14.1423 40.9405 14.2882C40.9405 14.9208 40.7401 18.1323 40.3895 18.4729C40.3394 18.5216 40.3394 18.5703 40.3394 18.7162C39.9387 22.609 39.9888 25.9178 40.2893 28.7401C40.2893 28.8374 40.69 29.2266 41.1408 29.3726C41.4413 29.4699 42.7436 29.2266 43.8455 28.8374C43.9957 28.7887 44.1961 28.7887 44.2462 28.7887C44.3464 28.7887 44.3964 28.6427 44.3964 28.5454C44.3964 28.3508 44.3964 27.8155 44.4465 27.6209C45.0476 25.1393 47.6521 21.9277 50.9578 21.4412C53.0614 21.1005 54.4138 21.8304 55.3654 22.8523C55.6159 23.0956 55.9164 25.0906 54.7143 27.2803C53.8628 28.8374 52.1098 30.1998 49.8058 31.0757C47.3516 32.0002 44.8973 32.1949 42.3429 32.0975C39.8386 30.6378 35.6814 27.2803 32.025 25.9178C31.424 25.7232 30.4223 24.7986 29.9214 24.458C28.1684 23.0469 24.3618 20.6626 22.0578 19.2028V19.1542C22.0077 18.8622 22.0578 18.8135 22.1079 18.6676C22.158 18.5703 22.208 18.5216 22.2581 18.4729C23.0595 17.9377 26.4153 16.1859 26.6658 15.748C26.7659 15.6507 26.9663 15.5534 27.0665 15.5047C32.0751 12.5365 40.8904 8.54643 44.747 4.65368C44.9975 4.5077 45.0476 4.41038 45.0476 4.31306C45.0476 4.16709 45.0977 3.97245 45.0977 3.82647C45.2479 3.29122 45.298 2.85328 45.1477 2.36669C45.1477 2.26937 45.0476 2.22071 44.9975 2.22071C42.9439 2.02607 40.1892 3.24256 37.6848 5.57821C36.9335 6.25944 36.3325 6.50273 35.6313 6.89201C32.7262 8.49777 25.9145 12.5852 22.6588 14.6288C22.6087 14.6775 22.5587 14.6288 22.5587 14.5802C22.759 10.8821 23.5103 5.57821 24.3117 1.49082C24.3117 1.34484 24.3117 1.24752 24.2616 1.19887C24.0112 0.809591 23.8609 0.371657 23.7607 0.225679C23.7607 0.225679 23.7607 0.225679 23.7106 0.177019C23.1597 -0.114937 22.7089 0.0310412 22.3082 0.0797006C21.9075 0.177019 21.4067 0.468975 20.7555 0.614953C20.6554 0.614953 20.6053 0.663613 20.6053 0.760931C19.0025 4.5077 17.6001 10.9307 17.3496 15.9426C17.3496 15.9426 17.3496 15.9913 17.2996 15.9913C14.094 13.9963 11.1389 12.5365 9.38586 11.7093C9.33577 11.7093 9.28568 11.7093 9.28568 11.6606C8.68464 11.612 7.98343 11.174 7.3323 10.7848C6.63109 10.3468 5.22866 9.42229 4.3271 8.88704C4.22693 8.83838 4.12676 8.78972 4.02658 8.83838C3.32537 8.9357 1.87286 9.90889 1.47216 10.5415C1.3219 10.7361 1.62242 11.174 1.57234 11.4173C1.57234 11.466 1.57234 11.466 1.62242 11.5146C2.42381 12.3419 4.57754 13.753 6.88152 14.9695C9.53612 16.3806 12.2408 17.6944 13.3427 18.3756C13.3928 18.4243 13.3928 18.4243 13.3928 18.4243C13.543 18.5702 13.6432 18.6676 13.9938 18.8622C14.5448 19.1542 14.645 19.2028 14.7952 19.3488C14.8453 19.3975 14.8453 19.4948 14.7451 19.5434C11.9403 21.4412 6.38066 24.9446 3.72606 26.6964C3.32537 26.9397 1.82277 27.5722 1.52225 27.7182C0.821036 28.0102 0.219996 28.4481 0.0196492 28.9347C-0.0304374 29.032 0.0196492 29.0807 0.119823 29.0807C0.570603 29.178 0.670776 29.4699 0.971296 29.6159C1.07147 29.6646 1.17164 29.6646 1.3219 29.6646C1.87286 29.6646 2.87459 29.324 4.57754 28.5941C6.581 27.7182 12.7417 24.0201 13.493 23.6308C13.493 23.6308 13.493 23.6308 13.543 23.6308C13.8937 23.6308 14.2443 23.3875 14.5448 23.1442C14.8954 22.8523 15.797 22.3657 16.2978 22.1224L17.2996 21.5871L17.1994 22.171Z" fill="#0051CD"/>
<path d="M68.6517 26.5918C69.6597 24.3198 70.5477 22.5278 71.3157 21.2158C72.5957 19.0558 73.9797 17.0718 75.4677 15.2638C74.2357 15.0878 73.2357 14.9998 72.4677 14.9998L73.4997 12.1438C75.4197 12.2238 77.2677 12.4158 79.0437 12.7198C80.8197 13.0078 82.5557 13.5198 84.2517 14.2558L85.6677 17.4718C84.8997 20.7198 83.1957 23.4078 80.5557 25.5358C78.1237 27.4878 75.1797 28.7838 71.7237 29.4238L68.6517 26.5918ZM72.8757 25.8478C75.0517 25.2238 76.9797 24.1518 78.6597 22.6318C80.4357 21.0318 81.6037 19.1678 82.1637 17.0398C80.4517 16.3198 78.4517 15.7678 76.1637 15.3838L78.2757 17.1118C76.0357 19.9438 74.2357 22.8558 72.8757 25.8478ZM93.9089 27.4318C92.7409 28.0398 91.1649 28.6958 89.1809 29.3998L86.1569 26.4958C88.1409 21.2638 90.8049 16.4718 94.1489 12.1198L96.7409 14.6878C95.0129 16.7838 93.3249 19.4398 91.6769 22.6558C91.1969 23.6158 90.7649 24.5438 90.3809 25.4398C92.3009 25.0078 93.9169 24.5278 95.2289 23.9998V24.0478C97.7729 18.7998 99.9249 15.1038 101.685 12.9598L104.325 15.5278C101.829 18.5358 99.2609 23.3598 96.6209 29.9998L93.9089 27.4318ZM116.805 25.4398C118.469 25.7918 120.597 26.0958 123.189 26.3518L122.157 29.6878C119.965 29.4958 118.389 29.3118 117.429 29.1358C116.485 28.9598 115.741 28.8158 115.197 28.7038L112.317 26.0878C114.269 22.0238 117.141 17.4158 120.933 12.2638L123.405 14.7598C121.309 17.6398 119.109 21.1998 116.805 25.4398ZM125.247 26.9518C127.599 21.6558 130.463 16.7598 133.839 12.2638L136.287 14.7598C134.655 17.0158 133.319 19.0798 132.279 20.9518C130.439 24.2798 129.015 27.1278 128.007 29.4958L125.247 26.9518ZM139.176 25.8238C141.704 25.6478 144.008 25.0478 146.088 24.0238L147.024 26.7598C144.4 28.3758 141.368 29.3118 137.928 29.5678L134.88 26.7358C135.6 23.5998 136.88 20.7598 138.72 18.2158C140.816 15.3518 143.36 13.2878 146.352 12.0238L150.912 15.3118C150.496 16.6718 149.744 18.2478 148.656 20.0398C148.352 20.5358 148.064 20.9758 147.792 21.3598L145.008 19.8238C146.096 17.9518 146.824 16.3758 147.192 15.0958C145.192 16.0878 143.424 17.6078 141.888 19.6558C140.416 21.6558 139.512 23.7118 139.176 25.8238ZM159.633 24.4798C158.449 23.7118 157.369 23.0638 156.393 22.5358C155.033 25.1278 153.921 27.4478 153.057 29.4958L150.249 26.9278C151.049 25.1518 152.081 23.1678 153.345 20.9758L151.449 20.0638L153.081 17.2558L155.001 18.1678C156.473 15.7678 157.793 13.8238 158.961 12.3358L161.553 14.6638C160.897 15.5278 159.745 17.2158 158.097 19.7278C159.121 20.3038 160.161 20.9198 161.217 21.5758C163.553 17.5598 165.457 14.6238 166.929 12.7678L169.521 15.0958C167.633 17.6398 165.817 20.4478 164.073 23.5198L166.113 25.0318L164.241 27.7678L162.537 26.4718C161.849 27.8318 161.297 29.0718 160.881 30.1918L158.097 27.6238C158.481 26.7598 158.993 25.7118 159.633 24.4798Z" fill="#2C333A"/>
</svg>
