<svg width="61" height="61" viewBox="0 0 61 61" fill="none" xmlns="http://www.w3.org/2000/svg">
<circle cx="30.5" cy="30.5" r="29" fill="white" stroke="#DDE2E9" stroke-width="3"/>
<path d="M23.7224 31.0788C23.7507 33.2185 23.8923 35.6743 24.317 37.6438C24.317 37.6438 24.317 37.6682 24.317 37.6925C24.6567 38.1301 25.0248 39.8808 25.3079 40.4401C25.3079 40.4644 25.3363 40.4644 25.3646 40.4887C25.5628 40.6103 26.2423 40.8291 26.6953 40.7805C26.7236 40.7805 26.7519 40.7562 26.7519 40.7318C26.8652 40.2699 26.7802 39.8565 26.7236 39.0298C26.5537 36.9873 26.3838 33.7291 26.4121 31.7596C28.2808 32.6593 35.2458 36.9387 38.8698 37.8384C38.9548 37.8627 39.0397 37.8384 39.0963 37.7897C39.2945 37.6195 39.4078 37.5952 39.6343 37.4979C39.7475 37.4493 39.8608 37.2305 39.8325 36.963C42.1258 36.8901 45.3252 36.1363 46.9956 34.3127C48.1564 33.0726 48.1281 31.3463 47.4203 30.7627C47.3637 30.7141 47.2221 30.6898 47.1089 30.5925C46.0047 29.6442 44.5041 29.4011 42.9186 29.474C41.3047 29.547 40.0023 30.1305 38.9831 30.6898C38.8981 29.3524 39.521 27.6747 38.9831 26.5805C38.9548 26.5319 38.9264 26.5319 38.8698 26.5319C38.3885 26.5319 37.4259 26.8237 37.2277 26.9939C37.171 27.0182 37.171 27.0668 37.1427 27.1398C37.1427 27.4559 37.0295 29.0607 36.8313 29.2309C36.803 29.2552 36.803 29.2795 36.803 29.3524C36.5765 31.2976 36.6048 32.9511 36.7747 34.3613C36.7747 34.41 37.0012 34.6045 37.256 34.6774C37.4259 34.726 38.162 34.6045 38.7849 34.41C38.8698 34.3856 38.9831 34.3856 39.0114 34.3856C39.068 34.3856 39.0963 34.3127 39.0963 34.2641C39.0963 34.1668 39.0963 33.8993 39.1246 33.8021C39.4644 32.562 40.9367 30.9572 42.8053 30.7141C43.9944 30.5439 44.7589 30.9086 45.2968 31.4192C45.4384 31.5408 45.6083 32.5377 44.9288 33.6319C44.4475 34.41 43.4565 35.0908 42.1541 35.5284C40.7668 35.9904 39.3794 36.0877 37.9355 36.0391C36.5198 35.3096 34.1699 33.6319 32.103 32.9511C31.7633 32.8538 31.197 32.3918 30.9139 32.2216C29.9229 31.5165 27.7712 30.325 26.4688 29.5956V29.5713C26.4405 29.4254 26.4688 29.4011 26.4971 29.3281C26.5254 29.2795 26.5537 29.2552 26.582 29.2309C27.035 28.9634 28.932 28.0881 29.0736 27.8692C29.1302 27.8206 29.2434 27.772 29.3001 27.7477C32.1314 26.2645 37.1144 24.2706 39.2945 22.3254C39.4361 22.2525 39.4644 22.2039 39.4644 22.1552C39.4644 22.0823 39.4927 21.985 39.4927 21.9121C39.5776 21.6446 39.606 21.4258 39.521 21.1826C39.521 21.134 39.4644 21.1097 39.4361 21.1097C38.2752 21.0124 36.718 21.6203 35.3024 22.7874C34.8777 23.1278 34.5379 23.2494 34.1416 23.4439C32.4994 24.2463 28.6489 26.2888 26.8085 27.31C26.7802 27.3343 26.7519 27.31 26.7519 27.2857C26.8652 25.4377 27.2898 22.7874 27.7429 20.745C27.7429 20.672 27.7429 20.6234 27.7145 20.5991C27.573 20.4046 27.488 20.1857 27.4314 20.1128C27.4314 20.1128 27.4314 20.1128 27.4031 20.0885C27.0917 19.9426 26.8368 20.0155 26.6103 20.0398C26.3838 20.0885 26.1007 20.2343 25.7326 20.3073C25.676 20.3073 25.6477 20.3316 25.6477 20.3802C24.7417 22.2525 23.9489 25.4621 23.8074 27.9665C23.8074 27.9665 23.8074 27.9908 23.7791 27.9908C21.967 26.9939 20.2966 26.2645 19.3056 25.8511C19.2773 25.8511 19.249 25.8511 19.249 25.8268C18.9092 25.8025 18.5129 25.5836 18.1448 25.3891C17.7484 25.1703 16.9556 24.7083 16.446 24.4408C16.3894 24.4165 16.3328 24.3922 16.2761 24.4165C15.8798 24.4651 15.0587 24.9514 14.8322 25.2675C14.7472 25.3648 14.9171 25.5836 14.8888 25.7052C14.8888 25.7295 14.8888 25.7295 14.9171 25.7538C15.3701 26.1672 16.5876 26.8723 17.89 27.4802C19.3906 28.1853 20.9195 28.8418 21.5423 29.1822C21.5706 29.2066 21.5706 29.2066 21.5706 29.2066C21.6556 29.2795 21.7122 29.3281 21.9104 29.4254C22.2218 29.5713 22.2785 29.5956 22.3634 29.6685C22.3917 29.6929 22.3917 29.7415 22.3351 29.7658C20.7496 30.7141 17.6068 32.4648 16.1063 33.3401C15.8798 33.4617 15.0304 33.7778 14.8605 33.8507C14.4641 33.9966 14.1244 34.2154 14.0111 34.4586C13.9828 34.5072 14.0111 34.5315 14.0677 34.5315C14.3225 34.5802 14.3792 34.726 14.5491 34.799C14.6057 34.8233 14.6623 34.8233 14.7472 34.8233C15.0587 34.8233 15.6249 34.6531 16.5876 34.2884C17.7201 33.8507 21.2026 32.0028 21.6273 31.8083C21.6273 31.8083 21.6273 31.8083 21.6556 31.8083C21.8538 31.8083 22.052 31.6867 22.2218 31.5651C22.42 31.4192 22.9297 31.1761 23.2128 31.0545L23.7791 30.787L23.7224 31.0788Z" fill="#0051CD"/>
</svg>
